# xmcd
#
# Track frame offsets:
#	150
#	10821
#	23654
#	33243
#	45407
#	57029
#	65616
#	77519
#	87289
#	101656
#	115653
#	125847
#	135304
#	144877
#	156680
#	167054
#	176582
#	188032
#	197910
#	208973
#	220959
#	232332
#	245114
#	262394
#	274285
#	284144
#	294571
#	304747
#
# Disc length: 4254 seconds
#
# Revision: 2
# Processed by: cddbd v1.5.2PL0 Copyright (c) Steve Scherf et al.
# Submitted via: EasyCDDAExtractor 16.1.0.1
#
DISCID=b1109c1c
DTITLE=Happy Elephant Walk - Leung Yat Ming
DYEAR=1950
DGENRE=AlternRock
TTITLE0=Swedish Rhapsody
TTITLE1=Reginella Campagnole
TTITLE2=Rico Vicilon
TTITLE3=I Was Kaiser Bill's Batman
TTITLE4=Under The Double Eagle
TTITLE5=Nick Nack Paddy Whack
TTITLE6=Isle Of Capri
TTITLE7=Wheels
TTITLE8=The Cuckoo Waltz
TTITLE9=Tea  For Two Cha Cha
TTITLE10=Baby Elephant Walk
TTITLE11=Tijuana Taxi
TTITLE12=Spancorn
TTITLE13=Popcorn
TTITLE14=Calcutta
TTITLE15=My Blue Heaven
TTITLE16=El Blue 
TTITLE17=Puppet On A String
TTITLE18=Agrikaan Beat
TTITLE19=Happy Trumpeter
TTITLE20=Market Day
TTITLE21=Zambesi
TTITLE22=The Breeze and I
TTITLE23=Come September
TTITLE24=Berlin Melody
TTITLE25=Cherry Pink and Apple Blossom White
TTITLE26=Blue Tango
TTITLE27=Frenesi
EXTD=
EXTT0=
EXTT1=
EXTT2=
EXTT3=
EXTT4=
EXTT5=
EXTT6=
EXTT7=
EXTT8=
EXTT9=
EXTT10=
EXTT11=
EXTT12=
EXTT13=
EXTT14=
EXTT15=
EXTT16=
EXTT17=
EXTT18=
EXTT19=
EXTT20=
EXTT21=
EXTT22=
EXTT23=
EXTT24=
EXTT25=
EXTT26=
EXTT27=
PLAYORDER=
